<?xml version="1.0" encoding="utf-8"?>
<!-- Generator: Adobe Illustrator 24.3.0, SVG Export Plug-In . SVG Version: 6.00 Build 0)  -->
<svg version="1.1" id="Layer_1" xmlns="http://www.w3.org/2000/svg" xmlns:xlink="http://www.w3.org/1999/xlink" x="0px" y="0px"
	 viewBox="0 0 120 80" style="enable-background:new 0 0 120 80;" xml:space="preserve">
<style type="text/css">
	.st0{fill:#FBC545;}
	.st1{fill:#360000;}
	.st2{fill:#FBAD18;}
	.st3{fill:#F78E1E;}
</style>
<polygon class="st0" points="109.3,17.5 117.7,32.1 109.3,46.7 92.4,46.7 84,32.1 92.4,17.5 "/>
<polygon class="st1" points="81.9,33.7 90.3,48.3 81.9,62.9 65,62.9 56.6,48.3 65,33.7 "/>
<polygon class="st2" points="54.5,49.9 62.9,64.5 54.5,79.1 37.6,79.1 29.2,64.5 37.6,49.9 "/>
<polygon class="st2" points="56.3,16.4 64.7,1.9 81.6,1.9 90,16.4 81.6,31 64.7,31 "/>
<polygon class="st3" points="1.5,48.8 9.9,34.2 26.7,34.2 35.2,48.8 26.7,63.4 9.9,63.4 "/>
</svg>
