<svg xmlns="http://www.w3.org/2000/svg" viewBox="0 0 86.64 81.88"><defs><style>.cls-1{fill:none;stroke-width:2.5px;}.cls-1,.cls-2{stroke:wheat;stroke-miterlimit:10;}.cls-2{fill:wheat;stroke-width:0.25px;}</style></defs><g id="Layer_2" data-name="Layer 2"><g id="Layer_1-2" data-name="Layer 1"><path class="cls-1" d="M78.35,70.14a6.73,6.73,0,0,0,5.4-1.62,6.65,6.65,0,0,0,1.08-7C80.51,52.31,72.4,45.28,69.7,43.66c-10.8-6.48-21.07-5.94-24.85-5.94A32,32,0,0,0,28.1,42a31.84,31.84,0,0,0-8.65,8.11c1.09.54,2.71,2.16,3.79,5.4a11.08,11.08,0,0,1,0,8.64,10.07,10.07,0,0,0,5.4,2.7c4.86,1.09,10.26-.54,13-4.32,1.08-2.16,0-1.62,1.08.54,1.62,1.62,5.4,1.08,5.94,1.08C53,63.11,61.6,64.19,78.35,70.14Z"/><path class="cls-1" d="M10.27,53.93c-2.7,5.4.54,14.05,5.4,14.59,2.7.54,6-1.63,7.57-4.33,3.24-5.94-2.16-15.12-7-15.12C13.51,49.07,11.35,51.77,10.27,53.93Z"/><path class="cls-2" d="M.4,67.53c-1-.8.81-5.18,3.44-8.78,1.94-2.64,4-3.6,5-3.78.47-.39.89.32,1,.92s-.53,1.48-1,1.86A7.14,7.14,0,0,0,5.1,60.86c-1.53,2.36-1.53,5-2.67,6.31a1.61,1.61,0,0,1-1,.61A1.48,1.48,0,0,1,.4,67.53Z"/><path class="cls-2" d="M18.91,81.75h0a1.62,1.62,0,1,1,0-3.24h0A2.7,2.7,0,0,0,20.53,78a2.51,2.51,0,0,0,1.08-2.16c.54-3.24,3.24-5.94,7-8.65.54-.54,1.21-1.08,1.75,0s2.42.38,1.34.92c-3.24,2.16-6.88,6.1-7.42,8.26a6.46,6.46,0,0,1-2.16,4.32A4.56,4.56,0,0,1,18.91,81.75Z"/><path class="cls-2" d="M37.82,81.57c-.54,0-1.08-.54-1.62-1.08s0-1.62,1.08-2.16,1.39-.64,1.62-1.08c.37-.8.55-1.62,0-3.78A56,56,0,0,1,37.28,67c0-1.08,0-1.62,1.08-1.62.54,0,1.35-.73,1.35.35.54,2.7,1.48,5.61,1.9,7.21.61,2.76.54,4.32,0,5.94a3.82,3.82,0,0,1-2.55,2.42A5,5,0,0,1,37.82,81.57Z"/><path class="cls-2" d="M63.3,81.57a7,7,0,0,1-2.37-1.19c-2.22-1.08-1.78-2.51-2.07-3.67-.89-2.16-6-7.5-13.68-11.76-.44-.54,1-.12,1-1.2.44-.54.74,0,1.63,0q11.31,5.67,13.31,11.34c.44.54.89,2.16,1.78,2.7a2.51,2.51,0,0,0,1.77,0c.58-.54,1.33,0,1.78,1.08.44.54,0,1.62-.89,2.16A3.41,3.41,0,0,1,63.3,81.57Z"/><path class="cls-1" d="M28.1,41.82c-.54,0-1.08,0-1.08-.54,0-8.64,2.16-24.31,11.34-34C40.53,4.54,44.85.76,50.25,1.3a12.29,12.29,0,0,1,8.1,4.86c.55.54,2.78,4.27,2.24,3.73"/><path class="cls-1" d="M28.64,55.55c.54.54,1.62.54,3.78.54a44.67,44.67,0,0,0,6.48-1.28,46.19,46.19,0,0,0,5.44-1.88A89,89,0,0,0,56.13,47c.62-.37,2.85-2,6-3.92,2.7-1.62,4.32-3.24,7-5.4,7-5.94,13.51-11.35,13-18.37A12.25,12.25,0,0,0,76.18,9.08C71.86,6.38,67.54,8,64.84,8.54c-4.32,1.09-7.57,3.25-11.89,7C48.09,19.89,42.69,25.83,36.2,36.64,32.42,43.12,25.94,53.39,28.64,55.55Z"/><path class="cls-1" d="M77.61,51.28a26.65,26.65,0,0,1-3.07,12.49c-.51,1-1.54,2.5-2.05,3.5"/><path class="cls-1" d="M70.91,44.74A33.53,33.53,0,0,1,67,60.55c-.64,1.27-1.94,3.16-2.59,4.43"/><path class="cls-1" d="M64.9,41.56a37.19,37.19,0,0,1-4.3,17.49c-.72,1.4-2.15,3.49-2.86,4.89"/></g></g></svg>