<svg xmlns="http://www.w3.org/2000/svg" viewBox="0 0 75.7 95.12"><defs><style>.cls-1,.cls-2{fill:none;stroke:wheat;stroke-linejoin:round;stroke-width:2px;}.cls-1{stroke-linecap:round;}.cls-3{fill:wheat;}</style></defs><g id="Layer_2" data-name="Layer 2"><g id="Layer_1-2" data-name="Layer 1"><line class="cls-1" x1="59.13" y1="82.88" x2="59.13" y2="93.75"/><line class="cls-1" x1="16.24" y1="83.25" x2="16.24" y2="94.12"/><polygon class="cls-2" points="5.5 1 70.19 1 74.7 10.3 1 10.3 5.5 1"/><circle class="cls-3" cx="37.84" cy="68.65" r="1.42"/><line class="cls-1" x1="26.84" y1="77.18" x2="48.84" y2="77.18"/><path class="cls-1" d="M5.53,61.52c-.11,13.3.15,8.06,0,21.36H70.2V61.52"/><circle class="cls-3" cx="37.84" cy="44.46" r="1.42"/><line class="cls-1" x1="26.84" y1="52.98" x2="48.84" y2="52.98"/><path class="cls-1" d="M5.53,37.33c-.11,13.3.15,8.06,0,21.36H70.2V37.33"/><circle class="cls-3" cx="37.84" cy="20.26" r="1.42"/><line class="cls-1" x1="26.84" y1="28.79" x2="48.84" y2="28.79"/><path class="cls-1" d="M5.53,13.14c-.11,13.29.15,8.06,0,21.35H70.2V13.14"/></g></g></svg>