<svg xmlns="http://www.w3.org/2000/svg" viewBox="0 0 86.08 107.4"><defs><style>.cls-1{fill:wheat;stroke-width:0.75px;}.cls-1,.cls-2{stroke:wheat;stroke-miterlimit:10;}.cls-2{fill:none;stroke-width:2px;}</style></defs><g id="Layer_2" data-name="Layer 2"><g id="Layer_1-2" data-name="Layer 1"><path class="cls-1" d="M4.79,43.14C1.85,43.87.38,41.66.38,39.46s2.2-3.68,4.41-3.68h10.3c-2.21-19.13,11-33.84,25-35.31C55.54-1,72.46,14.45,71,35.78h9.56c3,0,5.15,2.21,5.15,4.41s-2.2,3.68-5.15,3.68C55.54,43.14,29.8,43.14,4.79,43.14Z"/><path class="cls-2" d="M43,106.4A82.85,82.85,0,0,1,5.52,97.57c-.73,0-1.47-.74-1.47-2.21V43.14c0-.74,0-.74.74-1.48h75A2,2,0,0,1,82,43.87v53c0,.74-.73,1.47-1.47,2.21A103.3,103.3,0,0,1,43,106.4Z"/><path class="cls-2" d="M42.67,93.16c-14,0-26.48-10.3-29.42-24.28V49a2,2,0,0,1,2.2-2.21H70.62A2,2,0,0,1,72.83,49V68.15a30.7,30.7,0,0,1-30.16,25Z"/></g></g></svg>